<svg width="1003" height="268" viewBox="0 0 1003 268" fill="none" xmlns="http://www.w3.org/2000/svg">
<path d="M78.439 184.545C78.9925 184.604 79.3936 184.547 79.7946 184.491L80.9978 184.322C86.6899 183.113 92.4197 182.171 98.1682 181.363C103.115 180.668 108.08 180.107 113.045 179.545C118.01 178.984 123.032 178.823 127.899 179.503C129.845 179.774 131.314 180.522 132.093 182.185C132.302 182.701 132.492 183.083 132.529 183.351C132.604 183.885 132.241 184.209 131.572 184.303L130.77 184.416C125.024 184.269 119.219 184.676 113.604 185.465C111.866 185.709 110.281 186.068 108.543 186.313C100.827 187.67 93.2254 188.874 85.5655 190.633C81.8787 191.56 78.3067 192.334 74.6011 193.128C72.6146 193.543 71.5429 194.648 70.6613 196.135C66.1384 203.724 61.5967 211.178 57.2075 218.748C50.9213 229.311 44.8064 240.122 39.5688 251.355C37.651 255.169 36.0381 259.213 34.5589 263.238C34.1744 264.383 33.8485 264.974 33.3138 265.049C32.779 265.124 32.2067 264.932 31.3106 264.376C29.3848 263.283 28.0147 261.295 27.6953 259.022C27.6014 258.354 27.4887 257.552 27.6621 256.846C28.6673 251.388 30.6834 246.333 32.6995 241.278C37.229 230.826 42.4832 220.681 47.8899 210.651C49.5967 207.275 51.4373 203.881 53.2778 200.487C53.4888 200.048 53.8335 199.591 53.8732 198.904C53.5683 198.674 53.2821 198.578 53.0148 198.615C52.6137 198.672 52.2314 198.862 51.8304 198.918C42.8127 201.685 34.0039 204.968 25.0613 208.27C22.0805 209.37 19.0997 210.471 16.1 211.438C15.5841 211.647 15.183 211.703 14.782 211.759C13.4451 211.947 12.5678 211.525 11.7303 210.416C11.2165 209.67 10.8364 208.906 10.7425 208.237C10.5922 207.168 10.8429 206.042 11.6472 204.975C12.7962 203.45 14.4214 202.403 16.0653 201.491C19.7168 199.342 23.7295 197.823 27.6274 196.458C33.7603 194.505 39.9309 192.82 46.2914 191.517C50.1307 190.705 54.085 189.74 57.9243 188.928C59.5285 188.702 60.3516 187.769 61.1183 186.434C65.3926 179.017 69.5521 171.752 73.6928 164.354C78.4267 156.327 83.618 148.645 89.2668 141.307C89.7264 140.698 90.2048 140.221 90.6456 139.478C89.9772 139.572 89.29 139.532 88.6215 139.626C86.4825 139.926 84.2662 140.647 82.2985 141.196C71.2943 144.379 60.309 147.695 49.3236 151.011C46.8211 151.635 44.185 152.278 41.6825 152.903L40.613 153.053C39.4098 153.222 38.3215 153.239 37.2145 153.122C34.5805 152.81 32.7132 151.164 31.7066 148.852C31.4978 148.336 31.4414 147.935 31.385 147.534C31.2159 146.33 31.7904 145.568 33.167 144.693C35.9578 143.21 38.805 142.128 41.7858 141.028C49.544 138.029 57.6822 135.795 65.7243 133.846C73.6516 132.051 81.4451 130.274 89.4099 128.745C93.6503 127.877 97.8907 127.008 101.997 126.158C103.048 125.874 103.946 125.475 104.673 124.828C105.668 124.143 106.566 123.744 107.635 123.594C108.571 123.462 109.392 123.483 110.403 123.886C111.28 124.308 112.101 124.329 112.903 124.217C113.572 124.123 114.221 123.895 114.89 123.801C117.641 123.005 120.315 122.63 123.122 122.235L127.4 121.634C130.456 121.068 133.646 120.483 136.72 120.051C143.29 119.264 149.707 118.363 156.314 117.843C161.851 117.474 167.293 117.391 172.772 117.575C175.52 117.734 177.714 118.789 178.91 121.484C179.119 122 179.328 122.515 179.366 122.783C179.459 123.451 179.096 123.775 178.294 123.888L177.358 124.019C170.275 124.06 163.267 124.636 156.181 125.632L153.24 126.046C144.321 127.572 135.249 128.983 126.405 131.044C124.017 131.516 121.726 131.702 119.51 132.422C118.994 132.631 118.44 132.572 118.095 133.03C114.897 137.433 110.936 141.261 107.433 145.434C99.737 154.696 92.3647 164.32 85.2787 174.041C83.2105 176.786 81.2948 179.645 79.2454 182.523C78.9195 183.114 78.4411 183.591 78.439 184.545ZM169.705 173.491C170.062 176.031 169.445 178.435 168.562 180.877C166.219 186.523 162.829 191.498 158.981 196.129C156.148 199.253 153.316 202.378 150.007 205.024C149.146 205.69 148.267 206.223 147.387 206.756C146.374 207.307 145.476 207.706 144.54 207.837C142.401 208.138 140.646 207.294 138.99 205.209C137.334 203.124 136.308 200.678 135.933 198.005C135.839 197.336 135.745 196.668 135.785 195.98C135.572 188.649 138.05 182.029 142.111 176.006C143.434 173.775 145.061 171.774 147.012 170.136C148.562 168.555 149.939 167.68 151.409 167.474C153.013 167.248 154.578 167.71 156.523 168.936C156.98 169.281 157.419 169.492 157.953 169.417C158.221 169.379 158.603 169.189 159.1 168.847C160.458 167.838 161.757 167.382 162.96 167.213C166.303 166.744 169.066 168.946 169.667 173.223L169.705 173.491ZM167.014 172.778C166.655 171.193 166.179 170.715 164.842 170.902L164.307 170.978C162.837 171.184 161.69 171.754 160.6 172.726C160.217 172.916 159.854 173.239 159.929 173.774C160.173 175.512 159.083 176.483 158.03 177.722C157.073 178.674 156.269 179.742 155.312 180.694C153.532 182.58 152.02 184.429 152.281 187.255C152.337 187.656 152.126 188.094 151.725 188.151C151.591 188.17 151.458 188.188 151.153 187.959C150.714 187.748 150.562 187.633 150.294 187.67C149.893 187.727 149.682 188.165 149.337 188.623C148.782 189.519 148.207 190.281 147.633 191.043C145.773 194.304 144.048 197.546 143.047 201.095C142.97 201.514 142.625 201.972 142.663 202.239C142.7 202.507 142.853 202.621 143.005 202.736C143.31 202.966 143.577 202.929 143.845 202.891C144.112 202.853 144.513 202.797 144.762 202.626C146.176 202.018 147.456 201.429 148.699 200.573C154.398 196.5 158.992 191.356 162.671 185.522C164.568 182.529 166.141 179.172 166.722 175.546C166.858 174.573 166.841 173.484 167.014 172.778ZM208.156 168.905C210.318 166.829 212.347 164.771 214.509 162.695C214.987 162.219 215.466 161.743 215.963 161.4C216.69 160.753 217.339 160.525 218.008 160.431C219.211 160.262 220.259 160.933 220.905 162.614C221.095 162.997 221.151 163.398 221.226 163.932C221.339 164.735 221.318 165.555 221.163 166.395C221.028 167.369 220.777 168.494 220.507 169.487C220.334 170.193 220.275 170.746 220.313 171.013C220.407 171.682 220.942 171.607 222.278 171.419L227.893 170.63C229.096 170.461 230.222 170.711 230.907 171.706C231.097 172.088 231.269 172.337 231.306 172.604C231.4 173.272 231.056 173.73 230.406 173.957C228.093 174.964 225.877 175.685 223.471 176.023C222.669 176.135 221.867 176.248 220.912 176.246C218.602 176.298 216.087 173.925 215.578 171.27C215.502 170.735 215.294 170.219 215.218 169.685C215.068 168.615 215.051 167.527 215.169 166.42C212.701 168.266 210.94 170.286 209.027 172.191C201.697 180.173 195.415 188.827 189.171 197.748C188.826 198.205 188.366 198.815 188.04 199.406C187.562 199.882 187.065 200.225 186.664 200.281C186.129 200.356 185.557 200.164 184.928 199.571C183.994 198.748 183.692 197.564 183.541 196.494L183.41 195.558C183.51 193.363 183.744 191.149 184.38 188.878C186.883 179.529 190.854 170.927 197.019 163.381C197.823 162.314 198.646 161.38 199.756 160.543C200.234 160.066 200.75 159.858 201.285 159.782C201.686 159.726 202.239 159.785 202.812 159.977C205.807 160.919 207.634 163.252 208.048 166.194C208.16 166.996 208.121 167.683 208.1 168.504L208.156 168.905ZM288.087 193.798C289.635 193.171 290.209 192.409 291.051 191.609C296.447 186.352 301.386 180.75 306.61 175.244C310.859 170.557 315.242 165.852 319.93 161.376C320.772 160.576 321.766 159.891 322.741 159.072C322.99 158.901 323.239 158.729 323.506 158.692C323.907 158.635 324.327 158.713 324.669 159.21C324.822 159.325 324.859 159.592 324.878 159.726C324.935 160.127 324.59 160.584 324.226 160.908C320.955 163.822 318.141 167.08 315.175 170.224C308.668 177.273 302.332 184.571 296.014 192.002C294.387 194.003 292.607 195.889 290.675 197.66C289.833 198.46 288.954 198.993 288.151 199.106C286.815 199.293 285.595 198.374 284.567 196.883C283.73 195.774 283.274 194.474 283.086 193.137C282.936 192.068 283.034 190.827 283.018 189.739C283.104 185.501 284.03 181.417 285.394 177.544C290.183 162.148 297.012 147.692 305.463 134.099C307.015 131.563 308.738 129.276 310.138 126.625C309.681 126.281 309.28 126.337 309.012 126.374L303.798 127.107C297.248 128.028 290.735 129.216 284.222 130.404C277.976 131.554 271.768 132.972 265.522 134.122C264.319 134.292 263.135 134.594 261.932 134.763C260.728 134.933 259.506 134.968 258.303 135.137C255.21 135.436 252.789 133.731 252.012 131.113C251.974 130.846 251.803 130.598 251.766 130.33C251.653 129.528 252.016 129.204 253.182 128.768C253.832 128.54 254.615 128.294 255.417 128.181L275.336 125.382C279.213 124.837 283.09 124.292 286.986 123.881C295.312 122.983 303.448 121.703 311.659 120.958C313.798 120.658 315.175 119.783 316.305 118.124C318.699 114.789 321.112 111.587 323.811 108.481C324.883 107.376 325.628 106.862 326.43 106.749C327.366 106.618 328.244 107.04 329.463 107.959C331.408 109.185 332.454 110.81 332.717 112.682C332.905 114.019 332.692 115.412 332.097 116.995C331.886 117.434 331.789 117.72 331.827 117.988C331.883 118.389 332.303 118.466 332.99 118.506C333.945 118.508 334.881 118.376 335.817 118.245C344.373 117.042 353.022 116.508 361.635 115.707C362.704 115.557 363.926 115.521 365.014 115.505C365.835 115.526 366.541 115.699 367.17 116.292C367.475 116.522 367.951 117.001 368.026 117.535C368.045 117.669 367.93 117.821 367.949 117.955C367.794 118.795 366.992 118.908 366.324 119.001C359.163 119.463 352.134 120.859 344.993 121.454C342.434 121.677 339.76 122.053 337.22 122.41L329.333 123.519C328.397 123.65 327.632 124.03 327.076 124.926C318.743 137.413 310.257 149.784 302.82 162.826C298.546 170.243 294.557 177.756 291.142 185.462C290.009 188.075 289.011 190.669 288.087 193.798ZM346.222 154.136C348.652 152.022 350.948 149.927 353.262 147.966C357.509 144.234 361.66 140.788 366.097 137.437C366.957 136.771 367.856 136.372 368.658 136.26C370.128 136.053 371.578 136.667 372.777 138.407C373.462 139.402 374.032 140.548 374.182 141.618C374.37 142.955 374.023 144.367 373.275 145.835C371.32 149.382 369.059 152.699 366.799 156.016C364.443 159.619 361.952 163.24 359.366 167.148L359.634 167.111C360.569 166.979 360.78 166.541 361.259 166.064C367.016 161.438 372.792 156.946 378.873 152.683C379.867 151.998 380.861 151.313 381.875 150.761L383.422 150.135C384.225 150.022 384.816 150.348 385.215 151.246L385.233 151.38C385.309 151.915 384.811 152.257 384.314 152.6C381.561 154.35 379.131 156.464 376.55 158.462C370.907 162.936 365.875 167.87 360.556 172.707C359.485 173.812 358.242 174.668 357.151 175.639C356.673 176.115 356.157 176.324 355.622 176.399C354.82 176.512 354.114 176.339 353.352 175.764C351.407 174.538 350.781 172.99 350.518 171.118C350.405 170.316 350.292 169.514 350.313 168.693C350.411 167.453 350.777 166.174 351.143 164.896C352.566 160.47 354.732 156.485 357.032 152.48C357.243 152.042 357.588 151.584 357.628 150.897C356.633 151.582 355.791 152.382 354.797 153.067C346.667 160.208 339.203 168.21 332.635 176.767L332.175 177.377C331.523 178.559 330.911 179.054 330.109 179.167C329.307 179.28 328.411 178.724 327.268 177.385C326.621 176.658 326.241 175.894 326.128 175.091C326.053 174.557 326.112 174.003 326.285 173.297C326.613 171.752 327.075 170.187 327.555 168.756C331.958 155.459 338.096 142.872 345.13 130.841C350.304 122.071 356.07 113.626 362.465 105.775C364.092 103.774 365.738 101.907 367.556 100.288C368.283 99.6404 368.914 99.2791 369.716 99.1664C370.384 99.0724 371.09 99.2459 371.815 99.553C374.447 100.819 375.95 102.789 376.612 105.559L376.669 105.96C376.819 107.029 376.531 107.888 375.975 108.784C374.997 110.557 373.886 112.349 372.756 114.008C366.052 123.538 359.367 133.203 352.968 142.963C350.612 146.566 348.408 150.284 346.051 153.887C346.07 154.021 346.222 154.136 346.222 154.136ZM398.273 165.498C398.693 165.575 398.979 165.671 399.38 165.615C399.915 165.539 400.43 165.331 400.946 165.122C404.959 163.604 408.421 161.072 411.882 158.541C418.671 153.497 425.326 148.472 432.496 144.192C433.872 143.317 435.286 142.709 436.816 141.949C437.064 141.778 437.465 141.722 437.866 141.665C438.134 141.628 438.401 141.59 438.687 141.686C439.259 141.878 439.698 142.089 439.792 142.758L439.811 142.892C439.886 143.426 439.504 143.616 438.988 143.825C431.743 147.57 425.374 152.691 419.005 157.812C414.969 161.106 411.104 164.648 406.897 167.694C405.654 168.55 404.411 169.406 403.15 170.129C402.022 170.833 400.837 171.135 399.901 171.267C396.96 171.68 394.558 170.109 392.503 167.126C391.323 165.52 390.793 163.686 390.549 161.948C390.361 160.611 390.325 159.389 390.405 158.015C390.741 152.651 392.661 147.882 395.44 143.402C398.87 137.739 403.101 132.919 408.912 129.648C410.938 128.545 413.251 127.539 415.657 127.2L416.325 127.106C419.438 126.942 422.147 127.788 424.472 129.779C425.863 130.947 426.623 132.476 426.83 133.946C427.055 135.55 426.593 137.115 425.444 138.64C421.289 143.995 415.858 148.03 409.57 150.822C408.538 151.24 407.469 151.39 406.266 151.559C405.597 151.653 404.814 151.9 404.354 152.51C401.768 156.418 399.602 160.403 398.179 164.829L398.273 165.498ZM421.02 136.262C416.759 137.952 408.819 145.475 407.876 148.47C413.458 145.505 418.125 141.85 421.02 136.262ZM511.732 130.875C514.162 128.761 516.457 126.667 518.772 124.705C523.019 120.973 527.17 117.527 531.606 114.177C532.467 113.51 533.365 113.111 534.167 112.999C535.638 112.792 537.088 113.406 538.286 115.146C538.972 116.141 539.542 117.288 539.692 118.357C539.88 119.694 539.533 121.106 538.785 122.574C536.83 126.121 534.569 129.438 532.309 132.755C529.952 136.358 527.462 139.979 524.876 143.887L525.143 143.85C526.079 143.718 526.29 143.28 526.768 142.804C532.526 138.177 538.302 133.685 544.383 129.422C545.377 128.737 546.371 128.052 547.384 127.5L548.932 126.874C549.734 126.761 550.325 127.087 550.724 127.985L550.743 128.119C550.818 128.654 550.321 128.996 549.824 129.339C547.071 131.089 544.641 133.203 542.059 135.201C536.417 139.675 531.385 144.609 526.066 149.446C524.994 150.551 523.752 151.407 522.661 152.378C522.183 152.855 521.667 153.063 521.132 153.139C520.33 153.251 519.624 153.078 518.861 152.503C516.917 151.277 516.29 149.729 516.027 147.858C515.915 147.055 515.802 146.253 515.823 145.432C515.921 144.192 516.287 142.913 516.652 141.635C518.075 137.209 520.242 133.224 522.542 129.22C522.753 128.781 523.098 128.324 523.137 127.636C522.143 128.321 521.301 129.121 520.307 129.806C512.176 136.947 504.712 144.949 498.144 153.506L497.685 154.116C497.033 155.299 496.421 155.794 495.619 155.906C494.817 156.019 493.921 155.463 492.778 154.124C492.131 153.397 491.751 152.633 491.638 151.831C491.563 151.296 491.621 150.742 491.795 150.036C492.123 148.491 492.585 146.926 493.065 145.495C497.467 132.198 503.605 119.612 510.639 107.58C515.814 98.8099 521.58 90.3653 527.975 82.5139C529.602 80.513 531.248 78.6457 533.065 77.027C533.792 76.3796 534.423 76.0182 535.225 75.9055C535.894 75.8116 536.6 75.985 537.325 76.2921C539.956 77.5582 541.46 79.528 542.122 82.2979L542.179 82.6989C542.329 83.7684 542.041 84.6269 541.485 85.523C540.507 87.2963 539.396 89.0884 538.265 90.7468C531.562 100.278 524.877 109.942 518.478 119.703C516.121 123.306 513.917 127.024 511.561 130.627C511.58 130.76 511.732 130.875 511.732 130.875ZM563.004 140.574C564.188 140.271 564.915 139.624 565.642 138.976C571.953 134.408 578.244 129.707 584.555 125.139C586.544 123.769 588.551 122.533 590.425 121.315C590.922 120.973 591.419 120.63 592.088 120.536C592.756 120.442 593.214 120.787 593.575 121.418C593.746 121.666 593.765 121.8 593.784 121.934C593.84 122.335 593.61 122.64 593.247 122.963C593.017 123.268 592.769 123.44 592.405 123.763C583.379 130.349 574.714 137.565 566.182 144.762C564.825 145.771 563.467 146.78 562.09 147.655C561.593 147.997 560.943 148.225 560.542 148.281C559.606 148.413 558.748 148.125 557.852 147.569C555.755 146.228 554.652 144.201 554.333 141.929L554.182 140.859C553.886 136.811 555.25 132.939 556.748 129.047C559.187 123.115 562.502 117.605 566.561 112.536C567.021 111.926 567.499 111.45 568.111 110.955C569.316 109.831 570.177 109.165 571.113 109.033C572.049 108.902 573.06 109.305 574.528 110.053C576.74 111.242 578.225 113.078 578.964 115.428L579.039 115.963C579.227 117.299 578.958 118.292 578.02 119.378C575.11 122.922 572.066 126.486 569.442 130.126C567.393 133.004 565.362 136.016 563.465 139.009C563.254 139.448 562.891 139.772 563.004 140.574ZM591.183 98.5784C591.39 100.049 591.158 101.308 590.506 102.491C589.317 104.703 587.671 106.57 585.816 107.921C585.07 108.435 584.306 108.815 583.637 108.909C582.702 109.041 581.709 108.771 580.68 108.234C580.07 107.775 579.46 107.315 578.965 106.703C578.109 105.46 577.463 103.778 577.181 101.773C576.674 98.1636 577.6 94.08 581.575 92.2944C582.225 92.0667 582.741 91.8579 583.275 91.7828C584.077 91.67 584.765 91.7098 585.49 92.0169C588.522 93.2266 590.598 95.3887 591.183 98.5784ZM633.563 115.798L627.766 121.111C622.332 126.101 617.07 131.339 611.313 135.966C610.223 136.937 609.113 137.774 607.833 138.363C607.451 138.553 607.068 138.743 606.534 138.819C605.865 138.913 605.159 138.739 604.301 138.451C601.669 137.185 600.146 135.081 599.484 132.311L599.315 131.108C599.109 129.638 599.036 128.148 599.383 126.736C601.693 117.959 606.102 110.523 613.54 105.252C615.663 103.863 617.841 102.875 619.98 102.574C624.927 101.879 629.752 104.2 633.024 109.057C633.538 109.803 633.728 110.185 634.129 110.129C634.397 110.091 634.627 109.786 635.105 109.31C638.09 106.3 641.533 103.635 643.737 99.9173C644.178 99.1738 644.541 98.85 644.942 98.7936C645.343 98.7373 645.897 98.7958 646.488 99.1217C648.395 100.081 649.765 102.069 650.084 104.342C650.141 104.743 650.216 105.278 650.157 105.831C649.904 107.912 649.213 109.781 648.54 111.784C648.444 112.07 648.348 112.357 648.385 112.624C648.404 112.758 648.423 112.891 648.575 113.006C648.728 113.121 648.995 113.084 649.129 113.065C649.263 113.046 649.53 113.008 649.645 112.856C651.326 112.211 652.856 111.45 654.537 110.805C655.187 110.578 655.836 110.35 656.505 110.256C656.906 110.2 657.307 110.143 657.727 110.221C658.28 110.279 658.853 110.471 658.947 111.14L658.965 111.273C659.041 111.808 658.525 112.017 657.99 112.092C654.284 112.886 651.053 115.112 647.612 116.822C646.447 117.259 645.91 118.289 645.373 119.318C640.825 129.637 635.704 139.763 629.84 149.448C624.55 158.371 618.937 166.931 611.379 174.264C607.897 177.616 604.243 180.72 599.752 182.715C598.223 183.475 596.675 184.101 594.937 184.346C594.402 184.421 593.982 184.343 593.448 184.419C590.049 184.487 586.045 182.187 585.463 178.043C585.35 177.241 585.371 176.42 585.525 175.58C585.992 172.106 587.316 168.921 589.079 165.947C592.165 160.742 595.994 155.977 599.842 151.347C608.016 141.609 617.448 133.059 627.717 125.617C628.348 125.256 628.979 124.894 629.171 124.322C630.82 121.5 632.353 118.831 633.868 116.028L633.563 115.798ZM625.106 132.255C624.839 132.293 624.686 132.178 624.419 132.215C623.617 132.328 623.272 132.785 622.908 133.109C612.273 141.829 602.877 151.602 595.062 162.925C592.802 166.242 590.98 169.769 589.749 173.623C589.384 174.902 589.037 176.314 588.957 177.688L588.995 177.955C589.089 178.624 589.375 178.72 589.91 178.645L590.311 178.588C591.514 178.419 592.508 177.734 593.503 177.049C597.517 174.576 600.885 171.377 603.776 167.698C610.497 159.256 615.73 149.932 620.811 140.493C622.21 137.842 623.61 135.192 625.106 132.255ZM608.364 131.472C610.562 130.618 612.435 129.401 614.29 128.049C619.818 123.728 624.735 118.947 629.805 114.281C629.92 114.129 629.92 114.129 630.054 114.11C630.265 113.671 631.029 113.291 630.954 112.756C630.935 112.623 630.917 112.489 630.764 112.374C630.44 112.011 630.154 111.914 629.753 111.971C629.486 112.008 629.103 112.198 628.836 112.236C627.671 112.672 626.352 112.994 625.224 113.698C617.903 117.862 612.524 124.208 608.364 131.472ZM680.767 107.119C683.196 105.005 685.492 102.91 687.807 100.949C692.053 97.2167 696.204 93.7704 700.641 90.4203C701.502 89.7541 702.4 89.3552 703.202 89.2425C704.673 89.0358 706.122 89.65 707.321 91.3901C708.006 92.3844 708.576 93.5313 708.727 94.6007C708.915 95.9376 708.568 97.3496 707.82 98.818C705.864 102.365 703.604 105.682 701.344 108.998C698.987 112.601 696.497 116.223 693.911 120.131L694.178 120.094C695.114 119.962 695.325 119.523 695.803 119.047C701.56 114.421 707.336 109.928 713.417 105.666C714.412 104.981 715.406 104.296 716.419 103.744L717.967 103.118C718.769 103.005 719.36 103.331 719.759 104.229L719.778 104.363C719.853 104.897 719.356 105.24 718.859 105.583C716.105 107.333 713.676 109.446 711.094 111.445C705.452 115.919 700.419 120.852 695.101 125.69C694.029 126.795 692.786 127.651 691.696 128.622C691.217 129.098 690.701 129.307 690.167 129.382C689.365 129.495 688.659 129.322 687.896 128.747C685.952 127.521 685.325 125.973 685.062 124.101C684.949 123.299 684.837 122.497 684.858 121.676C684.956 120.435 685.321 119.157 685.687 117.879C687.11 113.453 689.276 109.467 691.577 105.463C691.788 105.025 692.132 104.567 692.172 103.88C691.178 104.565 690.336 105.365 689.341 106.05C681.211 113.191 673.747 121.193 667.179 129.75L666.72 130.36C666.068 131.542 665.456 132.037 664.654 132.15C663.851 132.263 662.955 131.707 661.813 130.368C661.165 129.641 660.785 128.876 660.673 128.074C660.597 127.54 660.656 126.986 660.829 126.28C661.158 124.734 661.619 123.17 662.1 121.739C666.502 108.442 672.64 95.8552 679.674 83.8242C684.849 75.0537 690.615 66.609 697.009 58.7577C698.637 56.7567 700.283 54.8894 702.1 53.2707C702.827 52.6233 703.458 52.262 704.26 52.1492C704.929 52.0553 705.635 52.2287 706.359 52.5358C708.991 53.8019 710.495 55.7718 711.157 58.5416L711.213 58.9427C711.364 60.0121 711.075 60.8706 710.519 61.7667C709.542 63.54 708.43 65.3321 707.3 66.9906C700.596 76.5213 693.911 86.1857 687.512 95.9463C685.156 99.5493 682.952 103.267 680.595 106.87C680.614 107.004 680.767 107.119 680.767 107.119ZM759.151 90.5132C763.295 89.9308 767.325 89.5008 771.448 89.7393C774.331 89.8795 777.232 90.1534 779.96 91.1332C781.982 91.9397 783.411 93.3748 784.265 95.5723C784.302 95.8397 784.474 96.0883 784.511 96.3557C784.605 97.0241 784.26 97.4815 783.592 97.5755C783.325 97.613 783.038 97.5169 782.771 97.5545C778.629 97.1824 774.581 97.4786 770.57 98.0423C766.56 98.6059 762.587 99.437 758.614 100.268C751.069 101.874 743.732 103.995 736.453 106.518C736.07 106.708 735.803 106.746 735.402 106.802C731.926 107.29 727.866 104.589 727.264 100.311L727.227 100.044C727.191 98.822 727.766 98.0596 728.76 97.3746C730.137 96.4995 731.57 96.0254 733.155 95.6663C739.593 93.9435 746.184 92.3357 752.868 91.3963L759.151 90.5132ZM801.739 108.794C802.159 108.871 802.445 108.968 802.846 108.911C803.381 108.836 803.896 108.627 804.412 108.418C808.425 106.9 811.887 104.369 815.348 101.837C822.137 96.7934 828.792 91.7682 835.962 87.4888C837.338 86.6137 838.752 86.006 840.282 85.2458C840.53 85.0745 840.931 85.0182 841.332 84.9618C841.6 84.9242 841.867 84.8867 842.153 84.9828C842.725 85.175 843.164 85.386 843.258 86.0544L843.277 86.1881C843.352 86.7229 842.97 86.9129 842.454 87.1217C835.209 90.8664 828.84 95.9877 822.471 101.109C818.435 104.403 814.57 107.945 810.363 110.99C809.12 111.846 807.877 112.703 806.616 113.425C805.488 114.129 804.303 114.432 803.368 114.564C800.426 114.977 798.024 113.406 795.969 110.423C794.789 108.817 794.259 106.982 794.015 105.245C793.827 103.908 793.791 102.686 793.871 101.311C794.207 95.9472 796.127 91.1786 798.906 86.6983C802.336 81.0358 806.567 76.2151 812.378 72.9445C814.404 71.8418 816.717 70.8352 819.123 70.497L819.791 70.403C822.904 70.2383 825.613 71.0845 827.938 73.0753C829.329 74.2431 830.089 75.7722 830.296 77.2427C830.521 78.8469 830.059 80.4114 828.91 81.9362C824.755 87.2916 819.324 91.3267 813.036 94.119C812.004 94.5366 810.935 94.6869 809.732 94.856C809.063 94.95 808.28 95.1964 807.82 95.8063C805.234 99.7143 803.068 103.7 801.645 108.126L801.739 108.794ZM824.486 79.5587C820.225 81.2482 812.285 88.7715 811.342 91.7668C816.924 88.8011 821.591 85.1461 824.486 79.5587ZM866.507 81.5601C867.71 81.391 868.285 80.6286 868.897 80.1336C874.942 74.6488 881.33 69.6613 888.061 65.1708C888.921 64.5046 889.935 63.9532 890.948 63.4018C891.445 63.0593 892.095 62.8317 892.629 62.7565C893.699 62.6062 894.843 62.9907 895.911 63.795C897.569 64.9251 898.634 66.684 898.897 68.5556C899.066 69.7588 898.834 71.0183 898.335 72.3155C896.896 75.6533 894.713 78.5503 892.682 81.5622C889.732 85.7939 886.916 90.0068 883.966 94.2386C883.622 94.696 883.411 95.1346 883.371 95.8218C884.595 94.8318 885.838 93.9755 887.062 92.9855C893.03 87.9206 898.98 82.722 904.967 77.7908C905.827 77.1246 906.573 76.6108 907.453 76.0782C907.701 75.9069 907.968 75.8693 908.236 75.8318C908.637 75.7754 908.923 75.8715 909.247 76.235C909.399 76.3499 909.437 76.6173 909.456 76.751C909.531 77.2857 909.186 77.7431 908.823 78.0669C907.484 79.2093 906.278 80.333 904.939 81.4755C897.784 87.7978 890.935 94.3498 884.085 100.902C883.128 101.854 882.171 102.807 881.043 103.511C880.546 103.853 880.164 104.043 879.763 104.1C879.094 104.193 878.522 104.001 877.779 103.56C876.291 102.679 875.397 101.169 875.02 99.4494L874.944 98.9147C874.663 96.9094 875.183 94.7914 875.722 92.807C877.107 88.1136 879.37 83.8421 881.937 79.8005C883.278 77.7034 884.638 75.74 885.998 73.7766C886.343 73.3192 886.554 72.8806 886.631 72.4607C884.185 73.4861 881.948 75.0275 879.863 76.6838C871.831 82.584 864.904 89.5559 858.643 97.3885C856.786 99.6944 854.795 102.019 853.243 104.555C852.669 105.317 852.324 105.775 851.789 105.85C851.388 105.906 850.95 105.695 850.206 105.254C847.86 104.084 846.776 102.192 846.457 99.9192L846.307 98.8497C846.311 96.9405 846.601 95.1274 847.159 93.2768C850.216 83.9859 854.894 75.5579 861.058 68.0115C861.978 66.7917 862.59 66.2967 863.258 66.2028C863.926 66.1088 864.785 66.3971 865.967 67.049C868.332 68.3526 869.434 70.3788 870.04 72.7476L870.096 73.1487C870.265 74.3518 869.862 75.3628 869.44 76.2401L866.507 81.5601ZM943.767 67.839C942.274 69.8211 940.628 71.6884 939 73.6894C934.271 79.8071 929.693 86.0398 924.793 91.909C923.74 93.1476 922.687 94.3861 921.615 95.491C921.137 95.9673 920.621 96.1761 920.086 96.2513C919.418 96.3452 918.712 96.1718 918.102 95.7122C916.042 94.6383 915.111 92.8607 914.658 90.6068L914.507 89.5373C914.207 87.3983 914.46 85.3179 914.846 83.2187C916.602 75.3377 919.806 68.0709 924.918 61.7631C926.316 60.0671 927.866 58.486 929.74 57.2683C930.619 56.7358 931.517 56.3369 932.453 56.2054C933.523 56.0551 934.63 56.1721 935.793 56.6902C938.54 57.8038 940.942 59.3748 942.54 62.0131C943.091 63.0263 943.415 63.3897 943.816 63.3334C944.083 63.2958 944.447 62.9721 945.021 62.2097C950.534 55.8455 955.285 48.9068 959.883 41.8532C965.937 32.5501 972.887 23.8027 980.314 15.5337C980.773 14.9238 981.252 14.4476 981.749 14.105C982.609 13.4388 983.088 12.9626 983.622 12.8874C984.024 12.831 984.328 13.0608 984.92 13.3867C986.102 14.0386 986.939 15.1478 987.09 16.2173C987.146 16.6183 987.05 16.9045 986.973 17.3243C986.799 18.0303 986.34 18.6402 986.032 19.365C982.143 25.6375 977.966 31.8138 973.924 37.9713C959.288 59.932 944.957 82.1224 932.113 105.194C929.946 109.18 927.742 112.898 925.881 117.113C925.555 117.704 925.325 118.009 924.924 118.065C924.657 118.103 924.371 118.007 923.798 117.814C922.349 117.2 921.455 115.69 921.229 114.086C921.173 113.685 921.117 113.284 921.194 112.864C921.445 111.738 921.829 110.593 922.347 109.43C924.919 103.479 928.063 97.7204 931.189 91.828C935.292 84.1624 939.528 76.478 943.765 68.7935C943.861 68.5074 943.976 68.3549 944.072 68.0687C944.054 67.9351 943.901 67.8202 943.767 67.839ZM921.956 88.2178C922.758 88.1051 922.969 87.6664 923.333 87.3427C929.284 81.1895 934.607 74.4431 940.235 67.9264L940.58 67.469C940.676 67.1828 940.791 67.0303 940.753 66.763C940.735 66.6293 940.716 66.4956 940.563 66.3807C940.411 66.2658 940.258 66.1509 940.125 66.1697C939.991 66.1885 939.876 66.3409 939.742 66.3597C938.844 66.7586 938.098 67.2724 937.219 67.805C932.189 71.7838 928.55 76.9303 925.082 82.3255C923.97 84.1176 922.725 85.9285 921.956 88.2178Z" fill="white"/>
</svg>
